<?xml version="1.0" encoding="UTF-8" standalone="no"?>
<!DOCTYPE svg PUBLIC "-//W3C//DTD SVG 1.1//EN"
 "http://www.w3.org/Graphics/SVG/1.1/DTD/svg11.dtd">
<!-- Generated by graphviz version 2.40.1 (20161225.0304)
 -->
<!-- Title: G Pages: 1 -->
<svg width="1219pt" height="499pt"
 viewBox="0.00 0.00 1219.00 499.00" xmlns="http://www.w3.org/2000/svg" xmlns:xlink="http://www.w3.org/1999/xlink">
<g id="graph0" class="graph" transform="scale(1 1) rotate(0) translate(4 495)">
<title>G</title>
<polygon fill="#ffffff" stroke="transparent" points="-4,4 -4,-495 1215,-495 1215,4 -4,4"/>
<g id="clust1" class="cluster">
<title>cluster_root</title>
<g id="a_clust1"><a xlink:title="eventq_index=0&#10;full_system=false&#10;sim_quantum=0&#10;time_sync_enable=false&#10;time_sync_period=100000000000&#10;time_sync_spin_threshold=100000000">
<path fill="#bab6ae" stroke="#000000" d="M20,-8C20,-8 1191,-8 1191,-8 1197,-8 1203,-14 1203,-20 1203,-20 1203,-471 1203,-471 1203,-477 1197,-483 1191,-483 1191,-483 20,-483 20,-483 14,-483 8,-477 8,-471 8,-471 8,-20 8,-20 8,-14 14,-8 20,-8"/>
<text text-anchor="middle" x="605.5" y="-467.8" font-family="Arial" font-size="14.00" fill="#000000">root </text>
<text text-anchor="middle" x="605.5" y="-452.8" font-family="Arial" font-size="14.00" fill="#000000">: Root</text>
</a>
</g>
</g>
<g id="clust2" class="cluster">
<title>cluster_system</title>
<g id="a_clust2"><a xlink:title="cache_line_size=64&#10;eventq_index=0&#10;exit_on_work_items=false&#10;init_param=0&#10;m5ops_base=0&#10;mem_mode=timing&#10;mem_ranges=0:536870912&#10;memories=system.mem_ctrls&#10;mmap_using_noreserve=false&#10;multi_thread=false&#10;&#10;um_work_ids=16&#10;&#13;eadfile=&#10;&#13;edirect_paths=system.redirect_paths0 system.redirect_paths1 system.redirect_paths2&#10;symbolfile=&#10;thermal_components=&#10;thermal_model=Null&#10;work_begin_ckpt_count=0&#10;work_begin_cpu_id_exit=&#45;1&#10;work_begin_exit_count=0&#10;work_cpus_ckpt_count=0&#10;work_end_ckpt_count=0&#10;work_end_exit_count=0&#10;work_item_id=&#45;1&#10;workload=Null">
<path fill="#e4e7eb" stroke="#000000" d="M28,-16C28,-16 1183,-16 1183,-16 1189,-16 1195,-22 1195,-28 1195,-28 1195,-425 1195,-425 1195,-431 1189,-437 1183,-437 1183,-437 28,-437 28,-437 22,-437 16,-431 16,-425 16,-425 16,-28 16,-28 16,-22 22,-16 28,-16"/>
<text text-anchor="middle" x="605.5" y="-421.8" font-family="Arial" font-size="14.00" fill="#000000">system </text>
<text text-anchor="middle" x="605.5" y="-406.8" font-family="Arial" font-size="14.00" fill="#000000">: System</text>
</a>
</g>
</g>
<g id="clust3" class="cluster">
<title>cluster_system_membus</title>
<g id="a_clust3"><a xlink:title="clk_domain=system.clk_domain&#10;eventq_index=0&#10;forward_latency=4&#10;frontend_latency=3&#10;max_outstanding_snoops=512&#10;max_routing_table_size=512&#10;point_of_coherency=true&#10;point_of_unification=true&#10;power_model=&#10;power_state=system.membus.power_state&#10;&#13;esponse_latency=2&#10;snoop_filter=system.membus.snoop_filter&#10;snoop_response_latency=4&#10;system=system&#10;use_default_range=false&#10;width=16">
<path fill="#6f798c" stroke="#000000" d="M67,-163C67,-163 193,-163 193,-163 199,-163 205,-169 205,-175 205,-175 205,-242 205,-242 205,-248 199,-254 193,-254 193,-254 67,-254 67,-254 61,-254 55,-248 55,-242 55,-242 55,-175 55,-175 55,-169 61,-163 67,-163"/>
<text text-anchor="middle" x="130" y="-238.8" font-family="Arial" font-size="14.00" fill="#000000">membus </text>
<text text-anchor="middle" x="130" y="-223.8" font-family="Arial" font-size="14.00" fill="#000000">: SystemXBar</text>
</a>
</g>
</g>
<g id="clust9" class="cluster">
<title>cluster_system_tol2bus</title>
<g id="a_clust9"><a xlink:title="clk_domain=system.cpu_clk_domain&#10;eventq_index=0&#10;forward_latency=0&#10;frontend_latency=1&#10;max_outstanding_snoops=512&#10;max_routing_table_size=512&#10;point_of_coherency=false&#10;point_of_unification=true&#10;power_model=&#10;power_state=system.tol2bus.power_state&#10;&#13;esponse_latency=1&#10;snoop_filter=system.tol2bus.snoop_filter&#10;snoop_response_latency=1&#10;system=system&#10;use_default_range=false&#10;width=32">
<path fill="#6f798c" stroke="#000000" d="M225,-163C225,-163 351,-163 351,-163 357,-163 363,-169 363,-175 363,-175 363,-242 363,-242 363,-248 357,-254 351,-254 351,-254 225,-254 225,-254 219,-254 213,-248 213,-242 213,-242 213,-175 213,-175 213,-169 219,-163 225,-163"/>
<text text-anchor="middle" x="288" y="-238.8" font-family="Arial" font-size="14.00" fill="#000000">tol2bus </text>
<text text-anchor="middle" x="288" y="-223.8" font-family="Arial" font-size="14.00" fill="#000000">: L2XBar</text>
</a>
</g>
</g>
<g id="clust14" class="cluster">
<title>cluster_system_l2</title>
<g id="a_clust14"><a xlink:title="addr_ranges=0:18446744073709551615&#10;assoc=8&#10;clk_domain=system.cpu_clk_domain&#10;clusivity=mostly_incl&#10;compressor=Null&#10;data_latency=20&#10;demand_mshr_reserve=1&#10;eventq_index=0&#10;is_read_only=false&#10;max_miss_count=0&#10;mshrs=20&#10;power_model=&#10;power_state=system.l2.power_state&#10;prefetch_on_access=false&#10;prefetcher=Null&#10;&#13;eplacement_policy=system.l2.replacement_policy&#10;&#13;esponse_latency=20&#10;sequential_access=false&#10;size=8192&#10;system=system&#10;tag_latency=20&#10;tags=system.l2.tags&#10;tgts_per_mshr=12&#10;warmup_percentage=0&#10;write_allocator=Null&#10;write_buffers=8&#10;writeback_clean=false">
<path fill="#bab6ae" stroke="#000000" d="M181,-32C181,-32 351,-32 351,-32 357,-32 363,-38 363,-44 363,-44 363,-111 363,-111 363,-117 357,-123 351,-123 351,-123 181,-123 181,-123 175,-123 169,-117 169,-111 169,-111 169,-44 169,-44 169,-38 175,-32 181,-32"/>
<text text-anchor="middle" x="266" y="-107.8" font-family="Arial" font-size="14.00" fill="#000000">l2 </text>
<text text-anchor="middle" x="266" y="-92.8" font-family="Arial" font-size="14.00" fill="#000000">: L2Cache</text>
</a>
</g>
</g>
<g id="clust21" class="cluster">
<title>cluster_system_mem_ctrls</title>
<g id="a_clust21"><a xlink:title="IDD0=0.055&#10;IDD02=0.0&#10;IDD2N=0.032&#10;IDD2N2=0.0&#10;IDD2P0=0.0&#10;IDD2P02=0.0&#10;IDD2P1=0.032&#10;IDD2P12=0.0&#10;IDD3N=0.038&#10;IDD3N2=0.0&#10;IDD3P0=0.0&#10;IDD3P02=0.0&#10;IDD3P1=0.038&#10;IDD3P12=0.0&#10;IDD4R=0.157&#10;IDD4R2=0.0&#10;IDD4W=0.125&#10;IDD4W2=0.0&#10;IDD5=0.235&#10;IDD52=0.0&#10;IDD6=0.02&#10;IDD62=0.0&#10;VDD=1.5&#10;VDD2=0.0&#10;activation_limit=4&#10;addr_mapping=RoRaBaCoCh&#10;bank_groups_per_rank=0&#10;banks_per_rank=8&#10;beats_per_clock=2&#10;burst_length=8&#10;clk_domain=system.clk_domain&#10;conf_table_reported=true&#10;data_clock_sync=false&#10;device_bus_width=8&#10;device_rowbuffer_size=1024&#10;device_size=536870912&#10;devices_per_rank=8&#10;dll=true&#10;enable_dram_powerdown=false&#10;eventq_index=0&#10;image_file=&#10;in_addr_map=true&#10;kvm_map=true&#10;max_accesses_per_row=16&#10;mem_sched_policy=frfcfs&#10;min_writes_per_switch=16&#10;&#10;ull=false&#10;page_policy=open_adaptive&#10;power_model=&#10;power_state=system.mem_ctrls.power_state&#10;qos_masters= &#160;&#160;&#160;&#160;&#160;&#160;&#160;&#160;&#160;&#160;&#160;&#160;&#160;&#160;&#10;qos_policy=Null&#10;qos_priorities=1&#10;qos_priority_escalation=false&#10;qos_q_policy=fifo&#10;qos_syncro_scheduler=false&#10;qos_turnaround_policy=Null&#10;&#13;ange=0:536870912&#10;&#13;anks_per_channel=2&#10;&#13;ead_buffer_size=32&#10;static_backend_latency=10000&#10;static_frontend_latency=10000&#10;tAAD=1250&#10;tBURST=5000&#10;tBURST_MAX=5000&#10;tBURST_MIN=5000&#10;tCCD_L=0&#10;tCCD_L_WR=0&#10;tCK=1250&#10;tCL=13750&#10;tCS=2500&#10;tPPD=0&#10;tRAS=35000&#10;tRCD=13750&#10;tREFI=7800000&#10;tRFC=260000&#10;tRP=13750&#10;tRRD=6000&#10;tRRD_L=0&#10;tRTP=7500&#10;tRTW=2500&#10;tWR=15000&#10;tWTR=7500&#10;tWTR_L=7500&#10;tXAW=30000&#10;tXP=6000&#10;tXPDLL=0&#10;tXS=270000&#10;tXSDLL=0&#10;two_cycle_activate=false&#10;write_buffer_size=64&#10;write_high_thresh_perc=85&#10;write_low_thresh_perc=50">
<path fill="#5e5958" stroke="#000000" d="M36,-32C36,-32 149,-32 149,-32 155,-32 161,-38 161,-44 161,-44 161,-111 161,-111 161,-117 155,-123 149,-123 149,-123 36,-123 36,-123 30,-123 24,-117 24,-111 24,-111 24,-44 24,-44 24,-38 30,-32 36,-32"/>
<text text-anchor="middle" x="92.5" y="-107.8" font-family="Arial" font-size="14.00" fill="#000000">mem_ctrls </text>
<text text-anchor="middle" x="92.5" y="-92.8" font-family="Arial" font-size="14.00" fill="#000000">: DDR3_1600_8x8</text>
</a>
</g>
</g>
<g id="clust25" class="cluster">
<title>cluster_system_cpu</title>
<g id="a_clust25"><a xlink:title="LFSTSize=1024&#10;LQEntries=32&#10;LSQCheckLoads=true&#10;LSQDepCheckShift=4&#10;SQEntries=32&#10;SSITSize=1024&#10;activity=0&#10;backComSize=5&#10;branchPred=system.cpu.branchPred&#10;cacheLoadPorts=200&#10;cacheStorePorts=200&#10;checker=Null&#10;clk_domain=system.cpu_clk_domain&#10;commitToDecodeDelay=1&#10;commitToFetchDelay=1&#10;commitToIEWDelay=1&#10;commitToRenameDelay=1&#10;commitWidth=8&#10;cpu_id=0&#10;decodeToFetchDelay=1&#10;decodeToRenameDelay=1&#10;decodeWidth=8&#10;dispatchWidth=8&#10;do_checkpoint_insts=true&#10;do_quiesce=true&#10;do_statistics_insts=true&#10;dtb=system.cpu.dtb&#10;eventq_index=0&#10;fetchBufferSize=64&#10;fetchQueueSize=32&#10;fetchToDecodeDelay=1&#10;fetchTrapLatency=1&#10;fetchWidth=8&#10;forwardComSize=5&#10;fuPool=system.cpu.fuPool&#10;function_trace=false&#10;function_trace_start=0&#10;iewToCommitDelay=1&#10;iewToDecodeDelay=1&#10;iewToFetchDelay=1&#10;iewToRenameDelay=1&#10;interrupts=system.cpu.interrupts&#10;isa=system.cpu.isa&#10;issueToExecuteDelay=1&#10;issueWidth=8&#10;itb=system.cpu.itb&#10;max_insts_all_threads=0&#10;max_insts_any_thread=0&#10;&#10;eedsTSO=false&#10;&#10;umIQEntries=64&#10;&#10;umPhysCCRegs=0&#10;&#10;umPhysFloatRegs=256&#10;&#10;umPhysIntRegs=256&#10;&#10;umPhysVecPredRegs=32&#10;&#10;umPhysVecRegs=256&#10;&#10;umROBEntries=192&#10;&#10;umRobs=1&#10;&#10;umThreads=1&#10;power_gating_on_idle=false&#10;power_model=&#10;power_state=system.cpu.power_state&#10;profile=0&#10;progress_interval=0&#10;pwr_gating_latency=300&#10;&#13;enameToDecodeDelay=1&#10;&#13;enameToFetchDelay=1&#10;&#13;enameToIEWDelay=2&#10;&#13;enameToROBDelay=1&#10;&#13;enameWidth=8&#10;simpoint_start_insts=&#10;smtCommitPolicy=RoundRobin&#10;smtFetchPolicy=SingleThread&#10;smtIQPolicy=Partitioned&#10;smtIQThreshold=100&#10;smtLSQPolicy=Partitioned&#10;smtLSQThreshold=100&#10;smtNumFetchingThreads=1&#10;smtROBPolicy=Partitioned&#10;smtROBThreshold=100&#10;socket_id=0&#10;squashWidth=8&#10;store_set_clear_period=250000&#10;switched_out=false&#10;syscallRetryLatency=10000&#10;system=system&#10;tracer=system.cpu.tracer&#10;trapLatency=13&#10;wait_for_remote_gdb=false&#10;wbWidth=8&#10;workload=system.cpu.workload">
<path fill="#bbc6d9" stroke="#000000" d="M383,-24C383,-24 1175,-24 1175,-24 1181,-24 1187,-30 1187,-36 1187,-36 1187,-334 1187,-334 1187,-340 1181,-346 1175,-346 1175,-346 383,-346 383,-346 377,-346 371,-340 371,-334 371,-334 371,-36 371,-36 371,-30 377,-24 383,-24"/>
<text text-anchor="middle" x="779" y="-330.8" font-family="Arial" font-size="14.00" fill="#000000">cpu </text>
<text text-anchor="middle" x="779" y="-315.8" font-family="Arial" font-size="14.00" fill="#000000">: DerivO3CPU</text>
</a>
</g>
</g>
<g id="clust85" class="cluster">
<title>cluster_system_cpu_dtb</title>
<g id="a_clust85"><a xlink:title="eventq_index=0&#10;size=64&#10;walker=system.cpu.dtb.walker">
<path fill="#bab6ae" stroke="#000000" d="M1004,-155C1004,-155 1166,-155 1166,-155 1172,-155 1178,-161 1178,-167 1178,-167 1178,-288 1178,-288 1178,-294 1172,-300 1166,-300 1166,-300 1004,-300 1004,-300 998,-300 992,-294 992,-288 992,-288 992,-167 992,-167 992,-161 998,-155 1004,-155"/>
<text text-anchor="middle" x="1085" y="-284.8" font-family="Arial" font-size="14.00" fill="#000000">dtb </text>
<text text-anchor="middle" x="1085" y="-269.8" font-family="Arial" font-size="14.00" fill="#000000">: RiscvTLB</text>
</a>
</g>
</g>
<g id="clust86" class="cluster">
<title>cluster_system_cpu_dtb_walker</title>
<g id="a_clust86"><a xlink:title="clk_domain=system.cpu_clk_domain&#10;eventq_index=0&#10;&#10;um_squash_per_cycle=4&#10;power_model=&#10;power_state=system.cpu.dtb.walker.power_state&#10;system=system">
<path fill="#9f9c95" stroke="#000000" d="M1012,-163C1012,-163 1158,-163 1158,-163 1164,-163 1170,-169 1170,-175 1170,-175 1170,-242 1170,-242 1170,-248 1164,-254 1158,-254 1158,-254 1012,-254 1012,-254 1006,-254 1000,-248 1000,-242 1000,-242 1000,-175 1000,-175 1000,-169 1006,-163 1012,-163"/>
<text text-anchor="middle" x="1085" y="-238.8" font-family="Arial" font-size="14.00" fill="#000000">walker </text>
<text text-anchor="middle" x="1085" y="-223.8" font-family="Arial" font-size="14.00" fill="#000000">: RiscvPagetableWalker</text>
</a>
</g>
</g>
<g id="clust89" class="cluster">
<title>cluster_system_cpu_itb_walker_cache</title>
<g id="a_clust89"><a xlink:title="addr_ranges=0:18446744073709551615&#10;assoc=2&#10;clk_domain=system.cpu_clk_domain&#10;clusivity=mostly_incl&#10;compressor=Null&#10;data_latency=2&#10;demand_mshr_reserve=1&#10;eventq_index=0&#10;is_read_only=false&#10;max_miss_count=0&#10;mshrs=10&#10;power_model=&#10;power_state=system.cpu.itb_walker_cache.power_state&#10;prefetch_on_access=false&#10;prefetcher=Null&#10;&#13;eplacement_policy=system.cpu.itb_walker_cache.replacement_policy&#10;&#13;esponse_latency=2&#10;sequential_access=false&#10;size=1024&#10;system=system&#10;tag_latency=2&#10;tags=system.cpu.itb_walker_cache.tags&#10;tgts_per_mshr=12&#10;warmup_percentage=0&#10;write_allocator=Null&#10;write_buffers=8&#10;writeback_clean=false">
<path fill="#bab6ae" stroke="#000000" d="M795,-32C795,-32 965,-32 965,-32 971,-32 977,-38 977,-44 977,-44 977,-111 977,-111 977,-117 971,-123 965,-123 965,-123 795,-123 795,-123 789,-123 783,-117 783,-111 783,-111 783,-44 783,-44 783,-38 789,-32 795,-32"/>
<text text-anchor="middle" x="880" y="-107.8" font-family="Arial" font-size="14.00" fill="#000000">itb_walker_cache </text>
<text text-anchor="middle" x="880" y="-92.8" font-family="Arial" font-size="14.00" fill="#000000">: PageTableWalkerCache</text>
</a>
</g>
</g>
<g id="clust95" class="cluster">
<title>cluster_system_cpu_itb</title>
<g id="a_clust95"><a xlink:title="eventq_index=0&#10;size=64&#10;walker=system.cpu.itb.walker">
<path fill="#bab6ae" stroke="#000000" d="M805,-155C805,-155 967,-155 967,-155 973,-155 979,-161 979,-167 979,-167 979,-288 979,-288 979,-294 973,-300 967,-300 967,-300 805,-300 805,-300 799,-300 793,-294 793,-288 793,-288 793,-167 793,-167 793,-161 799,-155 805,-155"/>
<text text-anchor="middle" x="886" y="-284.8" font-family="Arial" font-size="14.00" fill="#000000">itb </text>
<text text-anchor="middle" x="886" y="-269.8" font-family="Arial" font-size="14.00" fill="#000000">: RiscvTLB</text>
</a>
</g>
</g>
<g id="clust96" class="cluster">
<title>cluster_system_cpu_itb_walker</title>
<g id="a_clust96"><a xlink:title="clk_domain=system.cpu_clk_domain&#10;eventq_index=0&#10;&#10;um_squash_per_cycle=4&#10;power_model=&#10;power_state=system.cpu.itb.walker.power_state&#10;system=system">
<path fill="#9f9c95" stroke="#000000" d="M813,-163C813,-163 959,-163 959,-163 965,-163 971,-169 971,-175 971,-175 971,-242 971,-242 971,-248 965,-254 959,-254 959,-254 813,-254 813,-254 807,-254 801,-248 801,-242 801,-242 801,-175 801,-175 801,-169 807,-163 813,-163"/>
<text text-anchor="middle" x="886" y="-238.8" font-family="Arial" font-size="14.00" fill="#000000">walker </text>
<text text-anchor="middle" x="886" y="-223.8" font-family="Arial" font-size="14.00" fill="#000000">: RiscvPagetableWalker</text>
</a>
</g>
</g>
<g id="clust98" class="cluster">
<title>cluster_system_cpu_dtb_walker_cache</title>
<g id="a_clust98"><a xlink:title="addr_ranges=0:18446744073709551615&#10;assoc=2&#10;clk_domain=system.cpu_clk_domain&#10;clusivity=mostly_incl&#10;compressor=Null&#10;data_latency=2&#10;demand_mshr_reserve=1&#10;eventq_index=0&#10;is_read_only=false&#10;max_miss_count=0&#10;mshrs=10&#10;power_model=&#10;power_state=system.cpu.dtb_walker_cache.power_state&#10;prefetch_on_access=false&#10;prefetcher=Null&#10;&#13;eplacement_policy=system.cpu.dtb_walker_cache.replacement_policy&#10;&#13;esponse_latency=2&#10;sequential_access=false&#10;size=1024&#10;system=system&#10;tag_latency=2&#10;tags=system.cpu.dtb_walker_cache.tags&#10;tgts_per_mshr=12&#10;warmup_percentage=0&#10;write_allocator=Null&#10;write_buffers=8&#10;writeback_clean=false">
<path fill="#bab6ae" stroke="#000000" d="M997,-32C997,-32 1167,-32 1167,-32 1173,-32 1179,-38 1179,-44 1179,-44 1179,-111 1179,-111 1179,-117 1173,-123 1167,-123 1167,-123 997,-123 997,-123 991,-123 985,-117 985,-111 985,-111 985,-44 985,-44 985,-38 991,-32 997,-32"/>
<text text-anchor="middle" x="1082" y="-107.8" font-family="Arial" font-size="14.00" fill="#000000">dtb_walker_cache </text>
<text text-anchor="middle" x="1082" y="-92.8" font-family="Arial" font-size="14.00" fill="#000000">: PageTableWalkerCache</text>
</a>
</g>
</g>
<g id="clust104" class="cluster">
<title>cluster_system_cpu_icache</title>
<g id="a_clust104"><a xlink:title="addr_ranges=0:18446744073709551615&#10;assoc=2&#10;clk_domain=system.cpu_clk_domain&#10;clusivity=mostly_incl&#10;compressor=Null&#10;data_latency=2&#10;demand_mshr_reserve=1&#10;eventq_index=0&#10;is_read_only=true&#10;max_miss_count=0&#10;mshrs=4&#10;power_model=&#10;power_state=system.cpu.icache.power_state&#10;prefetch_on_access=false&#10;prefetcher=Null&#10;&#13;eplacement_policy=system.cpu.icache.replacement_policy&#10;&#13;esponse_latency=2&#10;sequential_access=false&#10;size=512&#10;system=system&#10;tag_latency=2&#10;tags=system.cpu.icache.tags&#10;tgts_per_mshr=20&#10;warmup_percentage=0&#10;write_allocator=Null&#10;write_buffers=8&#10;writeback_clean=true">
<path fill="#bab6ae" stroke="#000000" d="M593,-32C593,-32 763,-32 763,-32 769,-32 775,-38 775,-44 775,-44 775,-111 775,-111 775,-117 769,-123 763,-123 763,-123 593,-123 593,-123 587,-123 581,-117 581,-111 581,-111 581,-44 581,-44 581,-38 587,-32 593,-32"/>
<text text-anchor="middle" x="678" y="-107.8" font-family="Arial" font-size="14.00" fill="#000000">icache </text>
<text text-anchor="middle" x="678" y="-92.8" font-family="Arial" font-size="14.00" fill="#000000">: L1_ICache</text>
</a>
</g>
</g>
<g id="clust110" class="cluster">
<title>cluster_system_cpu_dcache</title>
<g id="a_clust110"><a xlink:title="addr_ranges=0:18446744073709551615&#10;assoc=2&#10;clk_domain=system.cpu_clk_domain&#10;clusivity=mostly_incl&#10;compressor=Null&#10;data_latency=2&#10;demand_mshr_reserve=1&#10;eventq_index=0&#10;is_read_only=false&#10;max_miss_count=0&#10;mshrs=4&#10;power_model=&#10;power_state=system.cpu.dcache.power_state&#10;prefetch_on_access=false&#10;prefetcher=Null&#10;&#13;eplacement_policy=system.cpu.dcache.replacement_policy&#10;&#13;esponse_latency=2&#10;sequential_access=false&#10;size=512&#10;system=system&#10;tag_latency=2&#10;tags=system.cpu.dcache.tags&#10;tgts_per_mshr=20&#10;warmup_percentage=0&#10;write_allocator=Null&#10;write_buffers=8&#10;writeback_clean=false">
<path fill="#bab6ae" stroke="#000000" d="M391,-32C391,-32 561,-32 561,-32 567,-32 573,-38 573,-44 573,-44 573,-111 573,-111 573,-117 567,-123 561,-123 561,-123 391,-123 391,-123 385,-123 379,-117 379,-111 379,-111 379,-44 379,-44 379,-38 385,-32 391,-32"/>
<text text-anchor="middle" x="476" y="-107.8" font-family="Arial" font-size="14.00" fill="#000000">dcache </text>
<text text-anchor="middle" x="476" y="-92.8" font-family="Arial" font-size="14.00" fill="#000000">: L1_DCache</text>
</a>
</g>
</g>
<!-- system_system_port -->
<g id="node1" class="node">
<title>system_system_port</title>
<path fill="#b6b8bc" stroke="#000000" d="M134,-354.5C134,-354.5 206,-354.5 206,-354.5 212,-354.5 218,-360.5 218,-366.5 218,-366.5 218,-378.5 218,-378.5 218,-384.5 212,-390.5 206,-390.5 206,-390.5 134,-390.5 134,-390.5 128,-390.5 122,-384.5 122,-378.5 122,-378.5 122,-366.5 122,-366.5 122,-360.5 128,-354.5 134,-354.5"/>
<text text-anchor="middle" x="170" y="-368.8" font-family="Arial" font-size="14.00" fill="#000000">system_port</text>
</g>
<!-- system_membus_slave -->
<g id="node3" class="node">
<title>system_membus_slave</title>
<path fill="#586070" stroke="#000000" d="M155,-171.5C155,-171.5 185,-171.5 185,-171.5 191,-171.5 197,-177.5 197,-183.5 197,-183.5 197,-195.5 197,-195.5 197,-201.5 191,-207.5 185,-207.5 185,-207.5 155,-207.5 155,-207.5 149,-207.5 143,-201.5 143,-195.5 143,-195.5 143,-183.5 143,-183.5 143,-177.5 149,-171.5 155,-171.5"/>
<text text-anchor="middle" x="170" y="-185.8" font-family="Arial" font-size="14.00" fill="#000000">slave</text>
</g>
<!-- system_system_port&#45;&gt;system_membus_slave -->
<g id="edge1" class="edge">
<title>system_system_port&#45;&gt;system_membus_slave</title>
<path fill="none" stroke="#000000" d="M170,-354.2842C170,-322.3583 170,-256.0809 170,-218.0263"/>
<polygon fill="#000000" stroke="#000000" points="173.5001,-217.6421 170,-207.6421 166.5001,-217.6421 173.5001,-217.6421"/>
</g>
<!-- system_membus_master -->
<g id="node2" class="node">
<title>system_membus_master</title>
<path fill="#586070" stroke="#000000" d="M75.5,-171.5C75.5,-171.5 112.5,-171.5 112.5,-171.5 118.5,-171.5 124.5,-177.5 124.5,-183.5 124.5,-183.5 124.5,-195.5 124.5,-195.5 124.5,-201.5 118.5,-207.5 112.5,-207.5 112.5,-207.5 75.5,-207.5 75.5,-207.5 69.5,-207.5 63.5,-201.5 63.5,-195.5 63.5,-195.5 63.5,-183.5 63.5,-183.5 63.5,-177.5 69.5,-171.5 75.5,-171.5"/>
<text text-anchor="middle" x="94" y="-185.8" font-family="Arial" font-size="14.00" fill="#000000">master</text>
</g>
<!-- system_mem_ctrls_port -->
<g id="node8" class="node">
<title>system_mem_ctrls_port</title>
<path fill="#4b4746" stroke="#000000" d="M79,-40.5C79,-40.5 109,-40.5 109,-40.5 115,-40.5 121,-46.5 121,-52.5 121,-52.5 121,-64.5 121,-64.5 121,-70.5 115,-76.5 109,-76.5 109,-76.5 79,-76.5 79,-76.5 73,-76.5 67,-70.5 67,-64.5 67,-64.5 67,-52.5 67,-52.5 67,-46.5 73,-40.5 79,-40.5"/>
<text text-anchor="middle" x="94" y="-54.8" font-family="Arial" font-size="14.00" fill="#000000">port</text>
</g>
<!-- system_membus_master&#45;&gt;system_mem_ctrls_port -->
<g id="edge2" class="edge">
<title>system_membus_master&#45;&gt;system_mem_ctrls_port</title>
<path fill="none" stroke="#000000" d="M94,-171.285C94,-149.3856 94,-112.3861 94,-86.7663"/>
<polygon fill="#000000" stroke="#000000" points="97.5001,-86.5603 94,-76.5603 90.5001,-86.5603 97.5001,-86.5603"/>
</g>
<!-- system_l2_mem_side -->
<g id="node6" class="node">
<title>system_l2_mem_side</title>
<path fill="#94918b" stroke="#000000" d="M189,-40.5C189,-40.5 249,-40.5 249,-40.5 255,-40.5 261,-46.5 261,-52.5 261,-52.5 261,-64.5 261,-64.5 261,-70.5 255,-76.5 249,-76.5 249,-76.5 189,-76.5 189,-76.5 183,-76.5 177,-70.5 177,-64.5 177,-64.5 177,-52.5 177,-52.5 177,-46.5 183,-40.5 189,-40.5"/>
<text text-anchor="middle" x="219" y="-54.8" font-family="Arial" font-size="14.00" fill="#000000">mem_side</text>
</g>
<!-- system_membus_slave&#45;&gt;system_l2_mem_side -->
<g id="edge3" class="edge">
<title>system_membus_slave&#45;&gt;system_l2_mem_side</title>
<path fill="none" stroke="#000000" d="M180.3846,-161.7372C189.9962,-136.0407 204.007,-98.5832 212.2446,-76.5603"/>
<polygon fill="#000000" stroke="#000000" points="177.0385,-160.6926 176.8132,-171.285 183.5949,-163.145 177.0385,-160.6926"/>
</g>
<!-- system_tol2bus_master -->
<g id="node4" class="node">
<title>system_tol2bus_master</title>
<path fill="#586070" stroke="#000000" d="M233.5,-171.5C233.5,-171.5 270.5,-171.5 270.5,-171.5 276.5,-171.5 282.5,-177.5 282.5,-183.5 282.5,-183.5 282.5,-195.5 282.5,-195.5 282.5,-201.5 276.5,-207.5 270.5,-207.5 270.5,-207.5 233.5,-207.5 233.5,-207.5 227.5,-207.5 221.5,-201.5 221.5,-195.5 221.5,-195.5 221.5,-183.5 221.5,-183.5 221.5,-177.5 227.5,-171.5 233.5,-171.5"/>
<text text-anchor="middle" x="252" y="-185.8" font-family="Arial" font-size="14.00" fill="#000000">master</text>
</g>
<!-- system_l2_cpu_side -->
<g id="node7" class="node">
<title>system_l2_cpu_side</title>
<path fill="#94918b" stroke="#000000" d="M291,-40.5C291,-40.5 343,-40.5 343,-40.5 349,-40.5 355,-46.5 355,-52.5 355,-52.5 355,-64.5 355,-64.5 355,-70.5 349,-76.5 343,-76.5 343,-76.5 291,-76.5 291,-76.5 285,-76.5 279,-70.5 279,-64.5 279,-64.5 279,-52.5 279,-52.5 279,-46.5 285,-40.5 291,-40.5"/>
<text text-anchor="middle" x="317" y="-54.8" font-family="Arial" font-size="14.00" fill="#000000">cpu_side</text>
</g>
<!-- system_tol2bus_master&#45;&gt;system_l2_cpu_side -->
<g id="edge4" class="edge">
<title>system_tol2bus_master&#45;&gt;system_l2_cpu_side</title>
<path fill="none" stroke="#000000" d="M261.038,-171.285C272.0496,-149.0923 290.7557,-111.3923 303.4824,-85.7431"/>
<polygon fill="#000000" stroke="#000000" points="306.7292,-87.0739 308.0388,-76.5603 300.4587,-83.9625 306.7292,-87.0739"/>
</g>
<!-- system_tol2bus_slave -->
<g id="node5" class="node">
<title>system_tol2bus_slave</title>
<path fill="#586070" stroke="#000000" d="M313,-171.5C313,-171.5 343,-171.5 343,-171.5 349,-171.5 355,-177.5 355,-183.5 355,-183.5 355,-195.5 355,-195.5 355,-201.5 349,-207.5 343,-207.5 343,-207.5 313,-207.5 313,-207.5 307,-207.5 301,-201.5 301,-195.5 301,-195.5 301,-183.5 301,-183.5 301,-177.5 307,-171.5 313,-171.5"/>
<text text-anchor="middle" x="328" y="-185.8" font-family="Arial" font-size="14.00" fill="#000000">slave</text>
</g>
<!-- system_cpu_itb_walker_cache_mem_side -->
<g id="node12" class="node">
<title>system_cpu_itb_walker_cache_mem_side</title>
<path fill="#94918b" stroke="#000000" d="M803,-40.5C803,-40.5 863,-40.5 863,-40.5 869,-40.5 875,-46.5 875,-52.5 875,-52.5 875,-64.5 875,-64.5 875,-70.5 869,-76.5 863,-76.5 863,-76.5 803,-76.5 803,-76.5 797,-76.5 791,-70.5 791,-64.5 791,-64.5 791,-52.5 791,-52.5 791,-46.5 797,-40.5 803,-40.5"/>
<text text-anchor="middle" x="833" y="-54.8" font-family="Arial" font-size="14.00" fill="#000000">mem_side</text>
</g>
<!-- system_tol2bus_slave&#45;&gt;system_cpu_itb_walker_cache_mem_side -->
<g id="edge7" class="edge">
<title>system_tol2bus_slave&#45;&gt;system_cpu_itb_walker_cache_mem_side</title>
<path fill="none" stroke="#000000" d="M351.3467,-164.6524C356.1542,-160.814 361.4547,-157.3503 367,-155 536.1013,-83.3292 615.7244,-207.1012 779,-123 798.7344,-112.8351 814.0713,-92.0022 823.2756,-76.7531"/>
<polygon fill="#000000" stroke="#000000" points="348.9524,-162.0972 343.7653,-171.3354 353.5813,-167.3483 348.9524,-162.0972"/>
</g>
<!-- system_cpu_dtb_walker_cache_mem_side -->
<g id="node15" class="node">
<title>system_cpu_dtb_walker_cache_mem_side</title>
<path fill="#94918b" stroke="#000000" d="M1005,-40.5C1005,-40.5 1065,-40.5 1065,-40.5 1071,-40.5 1077,-46.5 1077,-52.5 1077,-52.5 1077,-64.5 1077,-64.5 1077,-70.5 1071,-76.5 1065,-76.5 1065,-76.5 1005,-76.5 1005,-76.5 999,-76.5 993,-70.5 993,-64.5 993,-64.5 993,-52.5 993,-52.5 993,-46.5 999,-40.5 1005,-40.5"/>
<text text-anchor="middle" x="1035" y="-54.8" font-family="Arial" font-size="14.00" fill="#000000">mem_side</text>
</g>
<!-- system_tol2bus_slave&#45;&gt;system_cpu_dtb_walker_cache_mem_side -->
<g id="edge8" class="edge">
<title>system_tol2bus_slave&#45;&gt;system_cpu_dtb_walker_cache_mem_side</title>
<path fill="none" stroke="#000000" d="M351.2984,-164.5362C356.1106,-160.7093 361.4252,-157.2796 367,-155 493.4653,-103.2876 858.7505,-184.014 981,-123 1000.9928,-113.0217 1016.3763,-91.9317 1025.5189,-76.576"/>
<polygon fill="#000000" stroke="#000000" points="348.9044,-161.9808 343.7167,-171.2186 353.5329,-167.2322 348.9044,-161.9808"/>
</g>
<!-- system_cpu_icache_mem_side -->
<g id="node17" class="node">
<title>system_cpu_icache_mem_side</title>
<path fill="#94918b" stroke="#000000" d="M601,-40.5C601,-40.5 661,-40.5 661,-40.5 667,-40.5 673,-46.5 673,-52.5 673,-52.5 673,-64.5 673,-64.5 673,-70.5 667,-76.5 661,-76.5 661,-76.5 601,-76.5 601,-76.5 595,-76.5 589,-70.5 589,-64.5 589,-64.5 589,-52.5 589,-52.5 589,-46.5 595,-40.5 601,-40.5"/>
<text text-anchor="middle" x="631" y="-54.8" font-family="Arial" font-size="14.00" fill="#000000">mem_side</text>
</g>
<!-- system_tol2bus_slave&#45;&gt;system_cpu_icache_mem_side -->
<g id="edge5" class="edge">
<title>system_tol2bus_slave&#45;&gt;system_cpu_icache_mem_side</title>
<path fill="none" stroke="#000000" d="M352.1181,-164.4858C356.742,-160.8085 361.7804,-157.4428 367,-155 452.5092,-114.9804 494.7189,-169.2947 577,-123 596.2192,-112.1865 611.5532,-91.689 620.8986,-76.6938"/>
<polygon fill="#000000" stroke="#000000" points="349.5295,-162.0992 344.2933,-171.3097 354.1304,-167.3749 349.5295,-162.0992"/>
</g>
<!-- system_cpu_dcache_mem_side -->
<g id="node19" class="node">
<title>system_cpu_dcache_mem_side</title>
<path fill="#94918b" stroke="#000000" d="M399,-40.5C399,-40.5 459,-40.5 459,-40.5 465,-40.5 471,-46.5 471,-52.5 471,-52.5 471,-64.5 471,-64.5 471,-70.5 465,-76.5 459,-76.5 459,-76.5 399,-76.5 399,-76.5 393,-76.5 387,-70.5 387,-64.5 387,-64.5 387,-52.5 387,-52.5 387,-46.5 393,-40.5 399,-40.5"/>
<text text-anchor="middle" x="429" y="-54.8" font-family="Arial" font-size="14.00" fill="#000000">mem_side</text>
</g>
<!-- system_tol2bus_slave&#45;&gt;system_cpu_dcache_mem_side -->
<g id="edge6" class="edge">
<title>system_tol2bus_slave&#45;&gt;system_cpu_dcache_mem_side</title>
<path fill="none" stroke="#000000" d="M348.3616,-163.0904C368.1907,-137.3714 397.7956,-98.973 415.0757,-76.5603"/>
<polygon fill="#000000" stroke="#000000" points="345.3777,-161.2284 342.0436,-171.285 350.9214,-165.5026 345.3777,-161.2284"/>
</g>
<!-- system_cpu_icache_port -->
<g id="node9" class="node">
<title>system_cpu_icache_port</title>
<path fill="#959ead" stroke="#000000" d="M695,-171.5C695,-171.5 763,-171.5 763,-171.5 769,-171.5 775,-177.5 775,-183.5 775,-183.5 775,-195.5 775,-195.5 775,-201.5 769,-207.5 763,-207.5 763,-207.5 695,-207.5 695,-207.5 689,-207.5 683,-201.5 683,-195.5 683,-195.5 683,-183.5 683,-183.5 683,-177.5 689,-171.5 695,-171.5"/>
<text text-anchor="middle" x="729" y="-185.8" font-family="Arial" font-size="14.00" fill="#000000">icache_port</text>
</g>
<!-- system_cpu_icache_cpu_side -->
<g id="node18" class="node">
<title>system_cpu_icache_cpu_side</title>
<path fill="#94918b" stroke="#000000" d="M703,-40.5C703,-40.5 755,-40.5 755,-40.5 761,-40.5 767,-46.5 767,-52.5 767,-52.5 767,-64.5 767,-64.5 767,-70.5 761,-76.5 755,-76.5 755,-76.5 703,-76.5 703,-76.5 697,-76.5 691,-70.5 691,-64.5 691,-64.5 691,-52.5 691,-52.5 691,-46.5 697,-40.5 703,-40.5"/>
<text text-anchor="middle" x="729" y="-54.8" font-family="Arial" font-size="14.00" fill="#000000">cpu_side</text>
</g>
<!-- system_cpu_icache_port&#45;&gt;system_cpu_icache_cpu_side -->
<g id="edge9" class="edge">
<title>system_cpu_icache_port&#45;&gt;system_cpu_icache_cpu_side</title>
<path fill="none" stroke="#000000" d="M729,-171.285C729,-149.3856 729,-112.3861 729,-86.7663"/>
<polygon fill="#000000" stroke="#000000" points="732.5001,-86.5603 729,-76.5603 725.5001,-86.5603 732.5001,-86.5603"/>
</g>
<!-- system_cpu_dcache_port -->
<g id="node10" class="node">
<title>system_cpu_dcache_port</title>
<path fill="#959ead" stroke="#000000" d="M490,-171.5C490,-171.5 564,-171.5 564,-171.5 570,-171.5 576,-177.5 576,-183.5 576,-183.5 576,-195.5 576,-195.5 576,-201.5 570,-207.5 564,-207.5 564,-207.5 490,-207.5 490,-207.5 484,-207.5 478,-201.5 478,-195.5 478,-195.5 478,-183.5 478,-183.5 478,-177.5 484,-171.5 490,-171.5"/>
<text text-anchor="middle" x="527" y="-185.8" font-family="Arial" font-size="14.00" fill="#000000">dcache_port</text>
</g>
<!-- system_cpu_dcache_cpu_side -->
<g id="node20" class="node">
<title>system_cpu_dcache_cpu_side</title>
<path fill="#94918b" stroke="#000000" d="M501,-40.5C501,-40.5 553,-40.5 553,-40.5 559,-40.5 565,-46.5 565,-52.5 565,-52.5 565,-64.5 565,-64.5 565,-70.5 559,-76.5 553,-76.5 553,-76.5 501,-76.5 501,-76.5 495,-76.5 489,-70.5 489,-64.5 489,-64.5 489,-52.5 489,-52.5 489,-46.5 495,-40.5 501,-40.5"/>
<text text-anchor="middle" x="527" y="-54.8" font-family="Arial" font-size="14.00" fill="#000000">cpu_side</text>
</g>
<!-- system_cpu_dcache_port&#45;&gt;system_cpu_dcache_cpu_side -->
<g id="edge10" class="edge">
<title>system_cpu_dcache_port&#45;&gt;system_cpu_dcache_cpu_side</title>
<path fill="none" stroke="#000000" d="M527,-171.285C527,-149.3856 527,-112.3861 527,-86.7663"/>
<polygon fill="#000000" stroke="#000000" points="530.5001,-86.5603 527,-76.5603 523.5001,-86.5603 530.5001,-86.5603"/>
</g>
<!-- system_cpu_dtb_walker_port -->
<g id="node11" class="node">
<title>system_cpu_dtb_walker_port</title>
<path fill="#7f7c77" stroke="#000000" d="M1118,-171.5C1118,-171.5 1148,-171.5 1148,-171.5 1154,-171.5 1160,-177.5 1160,-183.5 1160,-183.5 1160,-195.5 1160,-195.5 1160,-201.5 1154,-207.5 1148,-207.5 1148,-207.5 1118,-207.5 1118,-207.5 1112,-207.5 1106,-201.5 1106,-195.5 1106,-195.5 1106,-183.5 1106,-183.5 1106,-177.5 1112,-171.5 1118,-171.5"/>
<text text-anchor="middle" x="1133" y="-185.8" font-family="Arial" font-size="14.00" fill="#000000">port</text>
</g>
<!-- system_cpu_dtb_walker_cache_cpu_side -->
<g id="node16" class="node">
<title>system_cpu_dtb_walker_cache_cpu_side</title>
<path fill="#94918b" stroke="#000000" d="M1107,-40.5C1107,-40.5 1159,-40.5 1159,-40.5 1165,-40.5 1171,-46.5 1171,-52.5 1171,-52.5 1171,-64.5 1171,-64.5 1171,-70.5 1165,-76.5 1159,-76.5 1159,-76.5 1107,-76.5 1107,-76.5 1101,-76.5 1095,-70.5 1095,-64.5 1095,-64.5 1095,-52.5 1095,-52.5 1095,-46.5 1101,-40.5 1107,-40.5"/>
<text text-anchor="middle" x="1133" y="-54.8" font-family="Arial" font-size="14.00" fill="#000000">cpu_side</text>
</g>
<!-- system_cpu_dtb_walker_port&#45;&gt;system_cpu_dtb_walker_cache_cpu_side -->
<g id="edge11" class="edge">
<title>system_cpu_dtb_walker_port&#45;&gt;system_cpu_dtb_walker_cache_cpu_side</title>
<path fill="none" stroke="#000000" d="M1133,-171.285C1133,-149.3856 1133,-112.3861 1133,-86.7663"/>
<polygon fill="#000000" stroke="#000000" points="1136.5001,-86.5603 1133,-76.5603 1129.5001,-86.5603 1136.5001,-86.5603"/>
</g>
<!-- system_cpu_itb_walker_cache_cpu_side -->
<g id="node13" class="node">
<title>system_cpu_itb_walker_cache_cpu_side</title>
<path fill="#94918b" stroke="#000000" d="M905,-40.5C905,-40.5 957,-40.5 957,-40.5 963,-40.5 969,-46.5 969,-52.5 969,-52.5 969,-64.5 969,-64.5 969,-70.5 963,-76.5 957,-76.5 957,-76.5 905,-76.5 905,-76.5 899,-76.5 893,-70.5 893,-64.5 893,-64.5 893,-52.5 893,-52.5 893,-46.5 899,-40.5 905,-40.5"/>
<text text-anchor="middle" x="931" y="-54.8" font-family="Arial" font-size="14.00" fill="#000000">cpu_side</text>
</g>
<!-- system_cpu_itb_walker_port -->
<g id="node14" class="node">
<title>system_cpu_itb_walker_port</title>
<path fill="#7f7c77" stroke="#000000" d="M916,-171.5C916,-171.5 946,-171.5 946,-171.5 952,-171.5 958,-177.5 958,-183.5 958,-183.5 958,-195.5 958,-195.5 958,-201.5 952,-207.5 946,-207.5 946,-207.5 916,-207.5 916,-207.5 910,-207.5 904,-201.5 904,-195.5 904,-195.5 904,-183.5 904,-183.5 904,-177.5 910,-171.5 916,-171.5"/>
<text text-anchor="middle" x="931" y="-185.8" font-family="Arial" font-size="14.00" fill="#000000">port</text>
</g>
<!-- system_cpu_itb_walker_port&#45;&gt;system_cpu_itb_walker_cache_cpu_side -->
<g id="edge12" class="edge">
<title>system_cpu_itb_walker_port&#45;&gt;system_cpu_itb_walker_cache_cpu_side</title>
<path fill="none" stroke="#000000" d="M931,-171.285C931,-149.3856 931,-112.3861 931,-86.7663"/>
<polygon fill="#000000" stroke="#000000" points="934.5001,-86.5603 931,-76.5603 927.5001,-86.5603 934.5001,-86.5603"/>
</g>
</g>
</svg>
